<?xml version="1.0" standalone="no"?>
<!DOCTYPE svg PUBLIC "-//W3C//DTD SVG 20010904//EN"
 "http://www.w3.org/TR/2001/REC-SVG-20010904/DTD/svg10.dtd">
<svg version="1.0" xmlns="http://www.w3.org/2000/svg"
 width="512.000000pt" height="512.000000pt" viewBox="0 0 512.000000 512.000000"
 preserveAspectRatio="xMidYMid meet">
<metadata>
Created by potrace 1.14, written by Peter Selinger 2001-2017
</metadata>
<g transform="translate(0.000000,512.000000) scale(0.100000,-0.100000)"
fill="#000000" stroke="none">
<path d="M2075 3653 c-272 -7 -606 -51 -830 -108 -157 -40 -172 -45 -214 -80
-152 -128 -56 -385 144 -385 17 0 62 9 100 20 416 119 1023 148 1550 74 397
-56 726 -155 1015 -305 168 -88 215 -96 300 -52 36 18 65 43 85 71 27 40 30
51 30 122 0 71 -3 82 -30 122 -67 94 -415 257 -767 358 -404 116 -916 176
-1383 163z"/>
<path d="M2010 2854 c-331 -23 -688 -87 -802 -145 -81 -41 -118 -147 -80 -231
41 -93 136 -129 254 -94 99 28 282 65 414 82 174 23 559 24 740 1 432 -54 743
-154 1114 -357 40 -22 68 -30 103 -30 164 0 245 193 129 308 -43 42 -264 159
-427 225 -279 113 -572 186 -894 222 -137 15 -452 26 -551 19z"/>
<path d="M1927 2090 c-234 -21 -561 -78 -634 -110 -116 -51 -110 -219 10 -265
42 -16 48 -16 171 10 248 51 388 66 648 72 164 4 286 1 360 -7 325 -35 615
-123 870 -266 53 -30 110 -57 126 -60 98 -20 195 92 163 189 -15 45 -50 75
-147 130 -255 144 -576 248 -894 292 -136 19 -533 27 -673 15z"/>
</g>
</svg>
